<svg width="48" height="48" viewBox="0 0 48 48" fill="none" xmlns="http://www.w3.org/2000/svg">
<rect width="48" height="48" fill="url(#paint0_linear_2_6)"/>
<path d="M36.6206 17.2569C36.8756 16.8184 37.0033 16.3269 36.9915 15.8297C36.9797 15.3325 36.8287 14.8466 36.5532 14.4188C36.2776 13.991 35.8868 13.6358 35.4185 13.3875C34.9501 13.1392 34.4201 13.0062 33.8796 13.0014C32.8211 12.9602 31.8418 13.8324 30.825 13.4586C26.0764 12.596 20.9934 12.618 16.0375 16.7144C11.5775 21.2814 11.5671 25.9403 12.4985 30.3194C12.9069 31.2606 11.9567 32.1481 12.0015 33.1286C12.0069 33.6258 12.1515 34.1134 12.4214 34.5442C12.6913 34.9751 13.0773 35.3346 13.5423 35.5882C14.0072 35.8417 14.5354 35.9807 15.0757 35.9918C15.6161 36.0028 16.1505 35.8855 16.6272 35.6512C17.1052 35.4548 17.6435 35.4209 18.1461 35.5554C22.901 36.4007 28.0059 36.3978 32.969 32.29C37.4551 27.6809 37.4238 23.0698 36.5185 18.6543C36.3723 18.192 36.4084 17.697 36.6206 17.2569ZM27.6287 23.5442C27.3524 23.5442 27.0874 23.4433 26.892 23.2635C26.6967 23.0838 26.5869 22.84 26.5869 22.5858C26.5869 22.3316 26.6967 22.0878 26.892 21.9081C27.0874 21.7283 27.3524 21.6274 27.6287 21.6274C27.905 21.6274 28.17 21.7283 28.3654 21.9081C28.5608 22.0878 28.6705 22.3316 28.6705 22.5858C28.6705 22.84 28.5608 23.0838 28.3654 23.2635C28.17 23.4433 27.905 23.5442 27.6287 23.5442ZM29.7123 26.4196C29.436 26.4196 29.171 26.3186 28.9757 26.1388C28.7803 25.9591 28.6705 25.7153 28.6705 25.4611C28.6705 25.2069 28.7803 24.9631 28.9757 24.7834C29.171 24.6037 29.436 24.5027 29.7123 24.5027C29.9887 24.5027 30.2536 24.6037 30.449 24.7834C30.6444 24.9631 30.7542 25.2069 30.7542 25.4611C30.7542 25.7153 30.6444 25.9591 30.449 26.1388C30.2536 26.3186 29.9887 26.4196 29.7123 26.4196ZM31.796 23.5442C31.5197 23.5442 31.2547 23.4433 31.0593 23.2635C30.8639 23.0838 30.7542 22.84 30.7542 22.5858C30.7542 22.3316 30.8639 22.0878 31.0593 21.9081C31.2547 21.7283 31.5197 21.6274 31.796 21.6274C32.0723 21.6274 32.3373 21.7283 32.5326 21.9081C32.728 22.0878 32.8378 22.3316 32.8378 22.5858C32.8378 22.84 32.728 23.0838 32.5326 23.2635C32.3373 23.4433 32.0723 23.5442 31.796 23.5442Z" fill="#CAF5CE"/>
<defs>
<linearGradient id="paint0_linear_2_6" x1="-1.19209e-07" y1="1.5" x2="30.5" y2="51.5" gradientUnits="userSpaceOnUse">
<stop stop-color="#C9A9F1"/>
<stop offset="0.503268" stop-color="#482575"/>
<stop offset="0.705" stop-color="#3E1078"/>
<stop offset="0.971904" stop-color="#3E1078"/>
</linearGradient>
</defs>
</svg>
